<?xml version="1.0" encoding="UTF-8"?>
<svg version="1.1" xmlns="http://www.w3.org/2000/svg" width="64" height="64">
<path d="M0 0 C6.35557558 4.64039252 11.2429567 9.70960946 13.11328125 17.54296875 C14.29347809 28.32061535 13.37440572 36.79358574 6.5390625 45.5625 C0.82649984 51.88759852 -5.20699039 54.61900147 -13.72119141 55.06445312 C-23.51920653 55.25554513 -30.46684617 52.88139052 -37.76171875 46.29296875 C-44.44393037 38.88408637 -45.78315958 31.19639223 -45.33203125 21.42578125 C-44.41764858 13.45300603 -40.72930378 7.35914885 -34.8046875 2.015625 C-25.06818925 -5.46026062 -10.60929306 -6.36557584 0 0 Z " fill="#77CBB2" transform="translate(46.88671875,7.45703125)"/>
<path d="M0 0 C6.35557558 4.64039252 11.2429567 9.70960946 13.11328125 17.54296875 C14.29347809 28.32061535 13.37440572 36.79358574 6.5390625 45.5625 C0.82649984 51.88759852 -5.20699039 54.61900147 -13.72119141 55.06445312 C-23.51920653 55.25554513 -30.46684617 52.88139052 -37.76171875 46.29296875 C-44.44393037 38.88408637 -45.78315958 31.19639223 -45.33203125 21.42578125 C-44.41764858 13.45300603 -40.72930378 7.35914885 -34.8046875 2.015625 C-25.06818925 -5.46026062 -10.60929306 -6.36557584 0 0 Z M-35.4765625 12.609375 C-39.33582759 17.90116509 -39.66239321 23.14365449 -38.88671875 29.54296875 C-37.56675046 34.00720113 -36.21436358 38.21532392 -32.88671875 41.54296875 C-31.89671875 41.54296875 -30.90671875 41.54296875 -29.88671875 41.54296875 C-29.55671875 40.22296875 -29.22671875 38.90296875 -28.88671875 37.54296875 C-27.95859375 37.70796875 -27.03046875 37.87296875 -26.07421875 38.04296875 C-19.06957465 39.03956446 -11.81167635 39.04025688 -4.88671875 37.54296875 C-3.89671875 38.86296875 -2.90671875 40.18296875 -1.88671875 41.54296875 C0.85846231 41.202754 1.86388029 40.86193945 3.59765625 38.64453125 C6.87098152 32.2393207 8.441398 26.72734835 7.11328125 19.54296875 C3.92389317 11.50280032 -0.68944256 6.83943962 -8.57421875 3.35546875 C-20.09845883 0.52876835 -28.10740641 3.46087825 -35.4765625 12.609375 Z " fill="#F0CD97" transform="translate(46.88671875,7.45703125)"/>
<path d="M0 0 C1.9375 0.8125 1.9375 0.8125 4 2 C4.33 2.99 4.66 3.98 5 5 C3.68 5.33 2.36 5.66 1 6 C1 6.66 1 7.32 1 8 C1.55429687 7.67257813 2.10859375 7.34515625 2.6796875 7.0078125 C5.36119727 5.84311634 7.21673918 5.79686762 10.125 5.875 C10.99382813 5.89304687 11.86265625 5.91109375 12.7578125 5.9296875 C13.86769531 5.96449219 13.86769531 5.96449219 15 6 C15.66 6 16.32 6 17 6 C16.34 5.34 15.68 4.68 15 4 C16.375 2 16.375 2 18 0 C18.66 0 19.32 0 20 0 C20.50690584 2.06081361 21.00524619 4.12373526 21.5 6.1875 C21.7784375 7.33605469 22.056875 8.48460937 22.34375 9.66796875 C22.92501228 12.61925876 23.36277456 15.02006614 23 18 C17.71041348 23.0596045 14.65403511 24.34432106 7.546875 24.29296875 C2.94078229 23.7631268 0.16572234 21.16572234 -3 18 C-3.12280804 11.82889583 -1.94288985 5.82866955 0 0 Z " fill="#B3C0DD" transform="translate(21,20)"/>
<path d="M0 0 C6.35557558 4.64039252 11.2429567 9.70960946 13.11328125 17.54296875 C14.29347809 28.32061535 13.37440572 36.79358574 6.5390625 45.5625 C0.82649984 51.88759852 -5.20699039 54.61900147 -13.72119141 55.06445312 C-23.51920653 55.25554513 -30.46684617 52.88139052 -37.76171875 46.29296875 C-44.44393037 38.88408637 -45.78315958 31.19639223 -45.33203125 21.42578125 C-44.41764858 13.45300603 -40.72930378 7.35914885 -34.8046875 2.015625 C-25.06818925 -5.46026062 -10.60929306 -6.36557584 0 0 Z M-37.44921875 8.48046875 C-38.30014487 9.81082522 -39.11634339 11.16440232 -39.88671875 12.54296875 C-40.50546875 13.63609375 -41.12421875 14.72921875 -41.76171875 15.85546875 C-44.46096491 24.70299782 -43.17988718 32.45583751 -38.88671875 40.54296875 C-34.91356916 46.99933683 -28.9519458 50.04335774 -21.88671875 52.54296875 C-13.88869023 54.09097427 -7.56161277 52.29290987 -0.5234375 48.3828125 C3.38692853 45.65424598 5.79944138 42.67540557 8.11328125 38.54296875 C9.04140625 36.93421875 9.04140625 36.93421875 9.98828125 35.29296875 C12.34915214 27.42339911 12.03475697 20.67284055 8.61328125 13.16796875 C5.63854605 7.81344538 2.43272313 4.52143817 -2.88671875 1.54296875 C-3.95921875 0.92421875 -5.03171875 0.30546875 -6.13671875 -0.33203125 C-17.64090253 -3.78328639 -29.76082373 -1.25816494 -37.44921875 8.48046875 Z " fill="#90709E" transform="translate(46.88671875,7.45703125)"/>
<path d="M0 0 C0.33 0.66 0.66 1.32 1 2 C0.13117187 2.09796875 -0.73765625 2.1959375 -1.6328125 2.296875 C-11.69350589 3.53609817 -11.69350589 3.53609817 -19.42578125 9.7109375 C-23.85695125 15.62748562 -24.66399356 20.67393776 -24 28 C-23.22465589 30.55142305 -22.24073247 32.62192944 -21 35 C-19.68 34.34 -18.36 33.68 -17 33 C-17.33386719 32.45730469 -17.66773438 31.91460937 -18.01171875 31.35546875 C-20.99630414 24.24201029 -17.74155716 14.82802916 -15 8 C-12.6875 8.25 -12.6875 8.25 -10 9 C-9.525625 9.680625 -9.05125 10.36125 -8.5625 11.0625 C-7.09451585 13.31000238 -7.09451585 13.31000238 -4.0625 13.5625 C-0.79217251 13.27241925 -0.79217251 13.27241925 1.375 10.5 C1.91125 9.675 2.4475 8.85 3 8 C5.475 8.495 5.475 8.495 8 9 C12.58241758 25.61126374 12.58241758 25.61126374 9 33 C10.32 33.66 11.64 34.32 13 35 C15.80457327 28.57285293 17.64229703 22.62097301 15.203125 15.7578125 C13.85597362 12.92879461 12.61560726 10.6023842 10.36328125 8.3984375 C9 7 9 7 9 5 C12.41427917 6.39774328 13.8402322 7.82992529 15.6875 11 C16.10386719 11.70125 16.52023438 12.4025 16.94921875 13.125 C19.68646885 18.00931244 19.64032254 22.4647674 19 28 C17.78340534 31.63031848 16.36684096 34.97293498 14 38 C11.828125 38.7734375 11.828125 38.7734375 10 39 C9.01 37.68 8.02 36.36 7 35 C6.236875 35.165 5.47375 35.33 4.6875 35.5 C-2.58165327 36.4856479 -9.78561951 36.28255653 -17 35 C-17.33 36.32 -17.66 37.64 -18 39 C-19.75 38.9375 -19.75 38.9375 -22 38 C-26.52280357 31.15118316 -27.85443697 25.21002477 -27 17 C-24.87900524 9.44817789 -19.15545602 4.51514444 -12.625 0.5625 C-8.43914492 -0.33446895 -4.26247405 -0.14897968 0 0 Z M-14 10 C-14.50904657 11.87256417 -15.00682455 13.74819341 -15.5 15.625 C-15.7784375 16.66914063 -16.056875 17.71328125 -16.34375 18.7890625 C-17.00408534 22.01998898 -17.32322031 24.71700511 -17 28 C-14.95224379 30.71102315 -12.03081229 32.48459386 -9 34 C-3.90021862 34.55950839 -0.0774776 34.57722014 4.5 32.125 C6.97250016 30.08137709 6.97250016 30.08137709 9 28 C9.12280804 21.82889583 7.94288985 15.82866955 6 10 C4.00016466 10.79117904 4.00016466 10.79117904 2 12 C1.67 12.99 1.34 13.98 1 15 C2.32 15.66 3.64 16.32 5 17 C4.443125 16.83886719 3.88625 16.67773438 3.3125 16.51171875 C0.81590039 15.95926174 -1.44450442 15.83197786 -4 15.8125 C-4.845625 15.79832031 -5.69125 15.78414062 -6.5625 15.76953125 C-9.15408616 16.01456904 -10.77024992 16.69415099 -13 18 C-13 17.34 -13 16.68 -13 16 C-11.68 15.67 -10.36 15.34 -9 15 C-9.79117904 13.00016466 -9.79117904 13.00016466 -11 11 C-11.99 10.67 -12.98 10.34 -14 10 Z " fill="#9177A2" transform="translate(35,10)"/>
<path d="M0 0 C5.34138825 2.96743791 8.67261132 6.17534112 11.625 11.5 C11.96144531 12.10070313 12.29789063 12.70140625 12.64453125 13.3203125 C14.66377797 17.43256838 14.9017597 20.97959161 14.625 25.5 C13.305 25.17 11.985 24.84 10.625 24.5 C10.2846875 22.7675 10.2846875 22.7675 9.9375 21 C8.37783495 14.84859378 5.63528767 10.12533897 0.6875 6.125 C-6.10624505 2.52015569 -13.03266657 0.92372848 -20.5859375 3.15234375 C-26.61091187 5.84165223 -30.7002269 10.2302049 -33.6875 16.0625 C-34.47558883 18.85663311 -34.97398843 21.62608378 -35.375 24.5 C-36.695 24.83 -38.015 25.16 -39.375 25.5 C-40.36556195 18.23587901 -37.2998955 12.49984026 -33.375 6.5 C-30.93860587 3.97993172 -28.42464922 2.20756391 -25.375 0.5 C-24.3025 -0.11875 -23.23 -0.7375 -22.125 -1.375 C-14.25543036 -3.73587089 -7.5048718 -3.42147572 0 0 Z " fill="#F2DCAD" transform="translate(43.375,8.5)"/>
<path d="M0 0 C4.90935842 0.24296679 9.66976321 0.26129651 14.5 -0.6875 C17 -1 17 -1 18.9375 0.1875 C20 2 20 2 19.75 4.0625 C19 6 19 6 18 8 C16.35 8 14.7 8 13 8 C13 8.66 13 9.32 13 10 C7.97874074 10.77916092 4.02296004 11.13016601 -1 10 C-1 9.34 -1 8.68 -1 8 C-2.175625 8.0928125 -2.175625 8.0928125 -3.375 8.1875 C-4.674375 8.0946875 -4.674375 8.0946875 -6 8 C-8 5 -8 5 -7.75 2.375 C-7.5025 1.59125 -7.255 0.8075 -7 0 C-4.30069458 -1.34965271 -2.92411995 -0.61427556 0 0 Z " fill="#BABED9" transform="translate(25,45)"/>
<path d="M0 0 C0.33 0 0.66 0 1 0 C1.40368295 6.45892714 0.5915262 11.06108578 -2 17 C-3.32 17 -4.64 17 -6 17 C-6.66 15.68 -7.32 14.36 -8 13 C-7.59007812 12.48050781 -7.18015625 11.96101563 -6.7578125 11.42578125 C-3.92363424 7.7576223 -1.40171967 4.48550294 0 0 Z " fill="#73C4AE" transform="translate(51,28)"/>
<path d="M0 0 C0.12375 1.0725 0.2475 2.145 0.375 3.25 C0.89643936 6.37863615 1.40088254 8.33480424 3 11 C2.01 11.99 1.02 12.98 0 14 C-3 13 -3 13 -4.25 10.75 C-5.09970924 7.63439946 -5.04010383 6.0403035 -4 3 C-1.51724138 0 -1.51724138 0 0 0 Z " fill="#79C9B3" transform="translate(16,32)"/>
<path d="M0 0 C1.32 0.33 2.64 0.66 4 1 C4 4 4 4 1.6875 6.5 C0.800625 7.325 -0.08625 8.15 -1 9 C-1.7115625 9.8971875 -1.7115625 9.8971875 -2.4375 10.8125 C-4.84793852 12.64443328 -7.07810726 12.19479285 -10 12 C-9.2575 11.4225 -8.515 10.845 -7.75 10.25 C-2.35654486 6.0950251 -2.35654486 6.0950251 0 0 Z " fill="#78BBAD" transform="translate(38,12)"/>
<path d="M0 0 C0.99 0.33 1.98 0.66 3 1 C2.67 2.65 2.34 4.3 2 6 C3.32 5.67 4.64 5.34 6 5 C5.67 5.99 5.34 6.98 5 8 C2.36 8 -0.28 8 -3 8 C-3.33 7.01 -3.66 6.02 -4 5 C-2.68 5.33 -1.36 5.66 0 6 C-0.2784375 4.7934375 -0.2784375 4.7934375 -0.5625 3.5625 C-0.706875 2.716875 -0.85125 1.87125 -1 1 C-0.67 0.67 -0.34 0.34 0 0 Z " fill="#9074A5" transform="translate(30,32)"/>
<path d="M0 0 C1.32 0.66 2.64 1.32 4 2 C4.33 2.99 4.66 3.98 5 5 C4.360625 5.103125 3.72125 5.20625 3.0625 5.3125 C2.381875 5.539375 1.70125 5.76625 1 6 C0.67 6.99 0.34 7.98 0 9 C-0.33 9 -0.66 9 -1 9 C-0.67 6.03 -0.34 3.06 0 0 Z " fill="#C4C9E2" transform="translate(21,20)"/>
<path d="M0 0 C0.25 2.8125 0.25 2.8125 0 6 C-2 7.875 -2 7.875 -4 9 C-4.75 6.75 -4.75 6.75 -5 4 C-1.75675676 0 -1.75675676 0 0 0 Z " fill="#7BD5B8" transform="translate(16,32)"/>
<path d="M0 0 C0.66 0 1.32 0 2 0 C2.33 2.64 2.66 5.28 3 8 C1.02 7.01 -0.96 6.02 -3 5 C-1.625 2.5 -1.625 2.5 0 0 Z " fill="#C5CAE2" transform="translate(39,20)"/>
</svg>
