<?xml version="1.0" encoding="UTF-8"?>
<svg version="1.1" xmlns="http://www.w3.org/2000/svg" width="512" height="512">
<path d="M0 0 C1.75875682 -0.01509826 1.75875682 -0.01509826 3.55304408 -0.03050154 C6.77179718 -0.05206228 9.98918386 -0.04714536 13.20792294 -0.03037608 C16.69264301 -0.01877878 20.17716788 -0.04189288 23.66183472 -0.06033325 C30.47295083 -0.09075527 37.28368281 -0.08885482 44.09483817 -0.07488243 C49.63132293 -0.0640384 55.16769764 -0.06460941 60.70418549 -0.07320213 C61.49400314 -0.07441025 62.28382079 -0.07561838 63.09757231 -0.07686311 C64.70233008 -0.07935389 66.30708783 -0.08186487 67.91184554 -0.08439585 C82.93339526 -0.10663856 97.95473024 -0.09143855 112.97625932 -0.06380954 C125.85644863 -0.04107382 138.73624085 -0.05279974 151.61639404 -0.08903503 C166.59266641 -0.13116297 181.56869274 -0.15027432 196.54502368 -0.13401049 C198.14245014 -0.13235091 199.73987663 -0.13072756 201.33730316 -0.12914085 C202.12317315 -0.12835591 202.90904314 -0.12757097 203.71872737 -0.12676224 C209.24856495 -0.12287556 214.77822095 -0.13557325 220.30802155 -0.15487099 C227.04681696 -0.17801519 233.78505886 -0.17634803 240.52382043 -0.14295784 C243.96007752 -0.12657486 247.39537514 -0.12130441 250.83160019 -0.14655685 C254.56004904 -0.16792294 258.28584933 -0.14617865 262.01416016 -0.11352539 C263.0954832 -0.12982256 264.17680624 -0.14611973 265.29089665 -0.16291076 C271.95660909 -0.04590324 275.40166848 1.21690045 280.11752975 5.98244303 C280.65727215 6.57188506 281.19701456 7.16132708 281.75311279 7.76863098 C282.53056571 8.50455632 283.30801863 9.24048166 284.10903072 9.99870777 C285.06943437 10.95854588 285.06943437 10.95854588 286.04924011 11.93777466 C286.79923782 12.68495255 287.54923553 13.43213043 288.32196045 14.20195007 C289.51075806 15.39378403 289.51075806 15.39378403 290.72357178 16.60969543 C292.01038597 17.89388115 292.01038597 17.89388115 293.32319641 19.20401001 C295.65104008 21.52823348 297.97665439 23.85465737 300.30109286 26.18228555 C302.74144405 28.62518644 305.1842544 31.06562637 307.62666321 33.50646973 C311.71935767 37.59735215 315.80995488 41.69032276 319.89935303 45.78450012 C324.62821815 50.51882788 329.36070434 55.24951308 334.09504455 59.97836524 C338.16836573 64.04715374 342.23974178 68.1178809 346.30948693 72.19024628 C348.73684531 74.61916379 351.16487472 77.04740015 353.59466362 79.47388649 C356.2954433 82.17125025 358.99213821 84.87267449 361.68841553 87.57453918 C362.89846756 88.78155487 362.89846756 88.78155487 364.13296509 90.01295471 C364.86322403 90.74603348 365.59348297 91.47911224 366.34587097 92.23440552 C366.98350089 92.87241246 367.62113081 93.51041941 368.27808285 94.1677599 C371.0191767 97.14270824 370.88645204 99.3409979 370.91133118 103.28611755 C370.9260144 105.04459267 370.9260144 105.04459267 370.94099426 106.83859253 C370.94674973 108.13115463 370.95250519 109.42371674 370.95843506 110.75544739 C370.96801139 112.12518613 370.97802133 113.4949219 370.98843384 114.86465454 C371.01551554 118.58960495 371.03650738 122.31456807 371.05643582 126.0395627 C371.07827527 129.93001922 371.10567393 133.8204364 371.13249207 137.71086121 C371.1824466 145.0808359 371.22737517 152.45083239 371.27051443 159.82084978 C371.31986324 168.21012159 371.37479009 176.59935395 371.43019402 184.98858762 C371.54405645 202.24856562 371.65088619 219.50858023 371.75311279 236.76863098 C373.82101553 233.90679223 375.88864923 231.04475921 377.95623779 228.18269348 C378.53647705 227.37968811 379.11671631 226.57668274 379.71453857 225.74934387 C382.28877716 222.18571175 384.8610879 218.62090978 387.41790771 215.04475403 C396.71144852 202.11475223 408.69064992 192.56554909 424.75311279 189.76863098 C439.00186992 188.30206525 452.76470366 190.49091991 464.75311279 198.76863098 C467.30031188 200.90518349 468.3104843 202.48363205 468.87811279 205.76863098 C469.345191 212.40326462 465.51726465 216.67304151 461.75311279 221.76863098 C460.78239071 223.12399156 459.81377926 224.48086535 458.84686279 225.83894348 C456.08014153 229.70969912 453.28375815 233.55805479 450.47918701 237.40144348 C447.7063814 241.20414832 444.94740542 245.01680783 442.19061279 248.83113098 C441.3830957 249.94790222 441.3830957 249.94790222 440.55926514 251.0872345 C436.92338516 256.12418107 433.32742782 261.18785456 429.75311279 266.26863098 C422.96078455 275.92371199 416.03491365 285.48068618 409.10760498 295.03913879 C402.78284224 303.76904006 396.49470874 312.52103635 390.29656982 321.34138489 C385.87489106 327.62343099 381.37570659 333.8482599 376.85272217 340.05769348 C376.0705835 341.1347052 376.0705835 341.1347052 375.27264404 342.23347473 C374.57812134 343.1866156 374.57812134 343.1866156 373.86956787 344.15901184 C371.65314119 347.35448551 371.62651768 349.46808128 371.62181091 353.3327179 C371.61780273 354.5158255 371.61379456 355.69893311 371.60966492 356.91789246 C371.61019363 358.22279633 371.61072235 359.5277002 371.61126709 360.87214661 C371.60823608 362.25521455 371.60471479 363.6382815 371.60073853 365.02134705 C371.59284151 368.00498567 371.58770145 370.9886123 371.58444786 373.97225952 C371.57853805 378.69669755 371.56199558 383.42106021 371.54310608 388.14546204 C371.5367682 389.76342006 371.53044258 391.38137813 371.52412891 392.99933624 C371.5209631 393.80979873 371.51779729 394.62026121 371.51453555 395.45528316 C371.47248947 406.45522662 371.43951426 417.45513602 371.42718506 428.45515442 C371.41878616 435.87233148 371.39622383 443.28932288 371.35782939 450.70640707 C371.33812186 454.6292262 371.3256462 458.55176813 371.33066368 462.47463989 C371.33533425 466.17168163 371.32137481 469.86819968 371.29365158 473.56513596 C371.28352303 475.55511438 371.29295271 477.5451629 371.30314636 479.53514099 C371.20944214 488.59667262 369.60173852 495.41190928 364.62811279 503.01863098 C358.32881072 509.04405036 351.53850416 512.88690638 342.77403164 512.90564537 C341.51671968 512.91071991 340.25940772 512.91579446 338.9639954 512.92102277 C337.56089179 512.92162447 336.15778813 512.92212354 334.75468445 512.92253113 C333.27016811 512.92654541 331.78565286 512.93098357 330.30113894 512.93581069 C326.21125576 512.94778612 322.12138439 512.95342689 318.03148711 512.95799184 C313.62434655 512.96394433 309.21722014 512.97555512 304.81008911 512.98628235 C294.16085149 513.01081549 283.51160918 513.02543537 272.86235198 513.03834242 C269.85481054 513.04205385 266.84726957 513.04602713 263.83972859 513.05009508 C245.16621532 513.07533243 226.49270133 513.09738716 207.81917477 513.10982323 C203.49287348 513.11275296 199.16657222 513.11571462 194.840271 513.11872864 C193.22733251 513.11984771 193.22733251 513.11984771 191.58180941 513.1209894 C174.1646503 513.13364165 156.74759331 513.16686231 139.33048194 513.20853047 C121.45128179 513.25095365 103.5721339 513.27451876 85.69288355 513.27974379 C75.65333458 513.2831576 65.61394516 513.29490918 55.57444572 513.32784653 C47.02367795 513.35585352 38.47310242 513.36684353 29.92229234 513.35565107 C25.56048004 513.35046597 21.19907028 513.35334133 16.83731651 513.37811661 C12.84038994 513.40062977 8.84415457 513.39985365 4.84721572 513.38091274 C3.40500099 513.37811557 1.96273919 513.3836956 0.52060007 513.39872567 C-8.32882402 513.48527982 -14.73121625 512.57966923 -22.24688721 507.76863098 C-23.15438721 507.21175598 -24.06188721 506.65488098 -24.99688721 506.08113098 C-31.03489937 499.87539626 -34.36270401 493.01156913 -34.3839016 484.40216923 C-34.39151341 482.75939396 -34.39151341 482.75939396 -34.399279 481.0834313 C-34.39977676 479.88062645 -34.40027451 478.6778216 -34.40078735 477.43856812 C-34.40516961 476.16052636 -34.40955186 474.8824846 -34.41406691 473.5657143 C-34.42602094 470.01571305 -34.43167809 466.46572537 -34.43624806 462.91570795 C-34.44220827 459.08809862 -34.45381674 455.26050549 -34.46453857 451.4329071 C-34.48904786 442.190134 -34.50368491 432.94735554 -34.51659864 423.70455995 C-34.5203108 421.09481524 -34.52428398 418.48507106 -34.52835131 415.87532687 C-34.55358138 399.67314639 -34.57563682 383.47096505 -34.58807945 367.26876926 C-34.59100918 363.51701415 -34.59397085 359.76525907 -34.59698486 356.01350403 C-34.59773091 355.08101516 -34.59847696 354.1485263 -34.59924562 353.18778019 C-34.61190949 338.06938279 -34.64514792 322.95110272 -34.6867867 307.83276022 C-34.72917213 292.31640837 -34.7527703 276.80011668 -34.75800002 261.28370708 C-34.76141733 252.56950591 -34.77321058 243.85548833 -34.80610275 235.14134407 C-34.83405748 227.72315198 -34.84512267 220.30518112 -34.83390729 212.88694043 C-34.82870939 209.10089319 -34.83167999 205.31530962 -34.85637283 201.5293293 C-34.88290123 197.42778777 -34.87084425 193.32727333 -34.85488892 189.22567749 C-34.868771 188.02510336 -34.88265309 186.82452923 -34.89695585 185.58757406 C-34.82000354 177.59684016 -34.82000354 177.59684016 -32.0213871 173.55256557 C-29.24688721 171.76863098 -29.24688721 171.76863098 -24.24688721 170.76863098 C-24.24688721 162.84863098 -24.24688721 154.92863098 -24.24688721 146.76863098 C-26.22688721 146.43863098 -28.20688721 146.10863098 -30.24688721 145.76863098 C-32.89158787 144.05314947 -33.98478319 142.72908062 -34.81719971 139.67878723 C-35.41058958 135.88487963 -35.51477465 133.43129992 -34.05938721 129.83113098 C-32.16526761 127.67575351 -30.95635714 126.67178762 -28.24688721 125.76863098 C-26.92688721 125.76863098 -25.60688721 125.76863098 -24.24688721 125.76863098 C-24.24688721 117.51863098 -24.24688721 109.26863098 -24.24688721 100.76863098 C-25.89688721 100.43863098 -27.54688721 100.10863098 -29.24688721 99.76863098 C-32.60119626 97.19265969 -34.05973923 95.7307277 -34.87507629 91.53921509 C-34.87603806 90.31917282 -34.87699982 89.09913055 -34.87799072 87.84211731 C-34.88514603 87.16494659 -34.89230133 86.48777588 -34.89967346 85.79008484 C-34.916529 83.55958265 -34.89716963 81.33110102 -34.87579346 79.10066223 C-34.87662295 77.53992548 -34.87908534 75.97918883 -34.88310242 74.41845703 C-34.88595887 71.14746288 -34.87128381 67.87715395 -34.84381104 64.60627747 C-34.80986909 60.43800394 -34.81570021 56.27096655 -34.83447361 52.10263538 C-34.84511063 48.87753231 -34.8360432 45.65271033 -34.82108879 42.42763329 C-34.81594589 40.89243597 -34.81634091 39.35720879 -34.82263374 37.82201576 C-34.85021452 27.04299773 -34.1457842 16.62565748 -26.25420737 8.47740048 C-18.44688641 1.8312699 -9.98346753 -0.11825073 0 0 Z " fill="#FDFDFD" transform="translate(39.24688720703125,-0.7686309814453125)"/>
<path d="M0 0 C1.75875682 -0.01509826 1.75875682 -0.01509826 3.55304408 -0.03050154 C6.77179718 -0.05206228 9.98918386 -0.04714536 13.20792294 -0.03037608 C16.69264301 -0.01877878 20.17716788 -0.04189288 23.66183472 -0.06033325 C30.47295083 -0.09075527 37.28368281 -0.08885482 44.09483817 -0.07488243 C49.63132293 -0.0640384 55.16769764 -0.06460941 60.70418549 -0.07320213 C61.49400314 -0.07441025 62.28382079 -0.07561838 63.09757231 -0.07686311 C64.70233008 -0.07935389 66.30708783 -0.08186487 67.91184554 -0.08439585 C82.93339526 -0.10663856 97.95473024 -0.09143855 112.97625932 -0.06380954 C125.85644863 -0.04107382 138.73624085 -0.05279974 151.61639404 -0.08903503 C166.59266641 -0.13116297 181.56869274 -0.15027432 196.54502368 -0.13401049 C198.14245014 -0.13235091 199.73987663 -0.13072756 201.33730316 -0.12914085 C202.12317315 -0.12835591 202.90904314 -0.12757097 203.71872737 -0.12676224 C209.24856495 -0.12287556 214.77822095 -0.13557325 220.30802155 -0.15487099 C227.04681696 -0.17801519 233.78505886 -0.17634803 240.52382043 -0.14295784 C243.96007752 -0.12657486 247.39537514 -0.12130441 250.83160019 -0.14655685 C254.56004904 -0.16792294 258.28584933 -0.14617865 262.01416016 -0.11352539 C263.0954832 -0.12982256 264.17680624 -0.14611973 265.29089665 -0.16291076 C271.95660909 -0.04590324 275.40166848 1.21690045 280.11752975 5.98244303 C280.65727215 6.57188506 281.19701456 7.16132708 281.75311279 7.76863098 C282.53056571 8.50455632 283.30801863 9.24048166 284.10903072 9.99870777 C285.06943437 10.95854588 285.06943437 10.95854588 286.04924011 11.93777466 C286.79923782 12.68495255 287.54923553 13.43213043 288.32196045 14.20195007 C289.51075806 15.39378403 289.51075806 15.39378403 290.72357178 16.60969543 C292.01038597 17.89388115 292.01038597 17.89388115 293.32319641 19.20401001 C295.65104008 21.52823348 297.97665439 23.85465737 300.30109286 26.18228555 C302.74144405 28.62518644 305.1842544 31.06562637 307.62666321 33.50646973 C311.71935767 37.59735215 315.80995488 41.69032276 319.89935303 45.78450012 C324.62821815 50.51882788 329.36070434 55.24951308 334.09504455 59.97836524 C338.16836573 64.04715374 342.23974178 68.1178809 346.30948693 72.19024628 C348.73684531 74.61916379 351.16487472 77.04740015 353.59466362 79.47388649 C356.2954433 82.17125025 358.99213821 84.87267449 361.68841553 87.57453918 C362.89846756 88.78155487 362.89846756 88.78155487 364.13296509 90.01295471 C364.86322403 90.74603348 365.59348297 91.47911224 366.34587097 92.23440552 C366.98350089 92.87241246 367.62113081 93.51041941 368.27808285 94.1677599 C371.0191767 97.14270824 370.88645204 99.3409979 370.91133118 103.28611755 C370.9260144 105.04459267 370.9260144 105.04459267 370.94099426 106.83859253 C370.94674973 108.13115463 370.95250519 109.42371674 370.95843506 110.75544739 C370.96801139 112.12518613 370.97802133 113.4949219 370.98843384 114.86465454 C371.01551554 118.58960495 371.03650738 122.31456807 371.05643582 126.0395627 C371.07827527 129.93001922 371.10567393 133.8204364 371.13249207 137.71086121 C371.1824466 145.0808359 371.22737517 152.45083239 371.27051443 159.82084978 C371.31986324 168.21012159 371.37479009 176.59935395 371.43019402 184.98858762 C371.54405645 202.24856562 371.65088619 219.50858023 371.75311279 236.76863098 C373.82101553 233.90679223 375.88864923 231.04475921 377.95623779 228.18269348 C378.53647705 227.37968811 379.11671631 226.57668274 379.71453857 225.74934387 C382.28877716 222.18571175 384.8610879 218.62090978 387.41790771 215.04475403 C396.71144852 202.11475223 408.69064992 192.56554909 424.75311279 189.76863098 C439.00186992 188.30206525 452.76470366 190.49091991 464.75311279 198.76863098 C467.30031188 200.90518349 468.3104843 202.48363205 468.87811279 205.76863098 C469.345191 212.40326462 465.51726465 216.67304151 461.75311279 221.76863098 C460.78239071 223.12399156 459.81377926 224.48086535 458.84686279 225.83894348 C456.08014153 229.70969912 453.28375815 233.55805479 450.47918701 237.40144348 C447.7063814 241.20414832 444.94740542 245.01680783 442.19061279 248.83113098 C441.3830957 249.94790222 441.3830957 249.94790222 440.55926514 251.0872345 C436.92338516 256.12418107 433.32742782 261.18785456 429.75311279 266.26863098 C422.96078455 275.92371199 416.03491365 285.48068618 409.10760498 295.03913879 C402.78284224 303.76904006 396.49470874 312.52103635 390.29656982 321.34138489 C385.87489106 327.62343099 381.37570659 333.8482599 376.85272217 340.05769348 C376.0705835 341.1347052 376.0705835 341.1347052 375.27264404 342.23347473 C374.57812134 343.1866156 374.57812134 343.1866156 373.86956787 344.15901184 C371.65314119 347.35448551 371.62651768 349.46808128 371.62181091 353.3327179 C371.61780273 354.5158255 371.61379456 355.69893311 371.60966492 356.91789246 C371.61019363 358.22279633 371.61072235 359.5277002 371.61126709 360.87214661 C371.60823608 362.25521455 371.60471479 363.6382815 371.60073853 365.02134705 C371.59284151 368.00498567 371.58770145 370.9886123 371.58444786 373.97225952 C371.57853805 378.69669755 371.56199558 383.42106021 371.54310608 388.14546204 C371.5367682 389.76342006 371.53044258 391.38137813 371.52412891 392.99933624 C371.5209631 393.80979873 371.51779729 394.62026121 371.51453555 395.45528316 C371.47248947 406.45522662 371.43951426 417.45513602 371.42718506 428.45515442 C371.41878616 435.87233148 371.39622383 443.28932288 371.35782939 450.70640707 C371.33812186 454.6292262 371.3256462 458.55176813 371.33066368 462.47463989 C371.33533425 466.17168163 371.32137481 469.86819968 371.29365158 473.56513596 C371.28352303 475.55511438 371.29295271 477.5451629 371.30314636 479.53514099 C371.20944214 488.59667262 369.60173852 495.41190928 364.62811279 503.01863098 C358.32881072 509.04405036 351.53850416 512.88690638 342.77403164 512.90564537 C341.51671968 512.91071991 340.25940772 512.91579446 338.9639954 512.92102277 C337.56089179 512.92162447 336.15778813 512.92212354 334.75468445 512.92253113 C333.27016811 512.92654541 331.78565286 512.93098357 330.30113894 512.93581069 C326.21125576 512.94778612 322.12138439 512.95342689 318.03148711 512.95799184 C313.62434655 512.96394433 309.21722014 512.97555512 304.81008911 512.98628235 C294.16085149 513.01081549 283.51160918 513.02543537 272.86235198 513.03834242 C269.85481054 513.04205385 266.84726957 513.04602713 263.83972859 513.05009508 C245.16621532 513.07533243 226.49270133 513.09738716 207.81917477 513.10982323 C203.49287348 513.11275296 199.16657222 513.11571462 194.840271 513.11872864 C193.22733251 513.11984771 193.22733251 513.11984771 191.58180941 513.1209894 C174.1646503 513.13364165 156.74759331 513.16686231 139.33048194 513.20853047 C121.45128179 513.25095365 103.5721339 513.27451876 85.69288355 513.27974379 C75.65333458 513.2831576 65.61394516 513.29490918 55.57444572 513.32784653 C47.02367795 513.35585352 38.47310242 513.36684353 29.92229234 513.35565107 C25.56048004 513.35046597 21.19907028 513.35334133 16.83731651 513.37811661 C12.84038994 513.40062977 8.84415457 513.39985365 4.84721572 513.38091274 C3.40500099 513.37811557 1.96273919 513.3836956 0.52060007 513.39872567 C-8.32882402 513.48527982 -14.73121625 512.57966923 -22.24688721 507.76863098 C-23.15438721 507.21175598 -24.06188721 506.65488098 -24.99688721 506.08113098 C-31.03489937 499.87539626 -34.36270401 493.01156913 -34.3839016 484.40216923 C-34.39151341 482.75939396 -34.39151341 482.75939396 -34.399279 481.0834313 C-34.39977676 479.88062645 -34.40027451 478.6778216 -34.40078735 477.43856812 C-34.40516961 476.16052636 -34.40955186 474.8824846 -34.41406691 473.5657143 C-34.42602094 470.01571305 -34.43167809 466.46572537 -34.43624806 462.91570795 C-34.44220827 459.08809862 -34.45381674 455.26050549 -34.46453857 451.4329071 C-34.48904786 442.190134 -34.50368491 432.94735554 -34.51659864 423.70455995 C-34.5203108 421.09481524 -34.52428398 418.48507106 -34.52835131 415.87532687 C-34.55358138 399.67314639 -34.57563682 383.47096505 -34.58807945 367.26876926 C-34.59100918 363.51701415 -34.59397085 359.76525907 -34.59698486 356.01350403 C-34.59773091 355.08101516 -34.59847696 354.1485263 -34.59924562 353.18778019 C-34.61190949 338.06938279 -34.64514792 322.95110272 -34.6867867 307.83276022 C-34.72917213 292.31640837 -34.7527703 276.80011668 -34.75800002 261.28370708 C-34.76141733 252.56950591 -34.77321058 243.85548833 -34.80610275 235.14134407 C-34.83405748 227.72315198 -34.84512267 220.30518112 -34.83390729 212.88694043 C-34.82870939 209.10089319 -34.83167999 205.31530962 -34.85637283 201.5293293 C-34.88290123 197.42778777 -34.87084425 193.32727333 -34.85488892 189.22567749 C-34.868771 188.02510336 -34.88265309 186.82452923 -34.89695585 185.58757406 C-34.81072603 176.63346222 -34.81072603 176.63346222 -31.8573246 173.55256557 C-29.03776927 171.62572286 -27.65952022 170.76863098 -24.24688721 170.76863098 C-19.62768758 172.28181707 -16.73890442 173.56092804 -14.24688721 177.76863098 C-13.87133169 180.22816461 -13.87133169 180.22816461 -13.87050629 183.04138851 C-13.86289984 184.11567165 -13.8552934 185.18995479 -13.84745646 186.29679197 C-13.85435039 187.47625113 -13.86124433 188.6557103 -13.86834717 189.87091064 C-13.86381704 191.12445109 -13.85928691 192.37799153 -13.8546195 193.66951805 C-13.84238853 197.15119177 -13.84878256 200.63262256 -13.85812449 204.11429608 C-13.86491187 207.86829418 -13.85439294 211.62224708 -13.84584045 215.37623596 C-13.8332647 221.88213411 -13.83130412 228.38796581 -13.8361969 234.89387321 C-13.84299812 244.30579698 -13.83049972 253.71762032 -13.81268972 263.12952615 C-13.78402865 278.40644016 -13.7665238 293.68334334 -13.75811768 308.96028137 C-13.7576105 309.87482655 -13.75710332 310.78937173 -13.75658077 311.73163039 C-13.75305362 318.22313045 -13.74992432 324.71463068 -13.74688721 331.20613098 C-13.74341849 338.61962398 -13.7397694 346.03311683 -13.73565674 353.4466095 C-13.73515412 354.35973923 -13.73465151 355.27286896 -13.73413366 356.21366929 C-13.72539381 371.43171783 -13.70496598 386.64972912 -13.67617464 401.86775261 C-13.65897992 411.25745327 -13.65241642 420.64704861 -13.65948069 430.03676296 C-13.66365537 436.46897022 -13.65732529 442.90111101 -13.64268196 449.33330279 C-13.63461208 453.0463188 -13.63153277 456.75917009 -13.64150429 460.47218513 C-13.65221704 464.49471638 -13.63994603 468.51684856 -13.62542725 472.53936768 C-13.63232118 473.71659612 -13.63921512 474.89382456 -13.64631796 476.10672659 C-13.63871151 477.18361748 -13.63110507 478.26050836 -13.62326813 479.37003231 C-13.62299574 480.29855855 -13.62272336 481.22708479 -13.62244272 482.18374819 C-13.16352103 485.34242576 -12.11646313 487.19839068 -10.24688721 489.76863098 C-6.78814639 492.07445819 -5.501878 492.01977138 -1.42563057 492.02310658 C0.40748658 492.03185487 0.40748658 492.03185487 2.27763641 492.04077989 C3.64095285 492.03714636 5.0042688 492.03332197 6.36758423 492.02932739 C7.81029208 492.03234617 9.25299832 492.03623428 10.69570172 492.04091996 C14.66984884 492.0512441 18.64390619 492.04900696 22.61806083 492.04473937 C26.90036234 492.0422801 31.18264178 492.05127635 35.4649353 492.05877686 C43.85834436 492.07154846 52.25172147 492.07331447 60.64513861 492.07097659 C67.4656808 492.06919593 74.28621327 492.07093766 81.1067543 492.07520103 C82.07628065 492.07579622 83.045807 492.07639141 84.04471294 492.07700464 C86.01410968 492.07821635 87.98350643 492.07943048 89.95290317 492.08064701 C108.43649271 492.09153215 126.92006402 492.08935553 145.40365459 492.08326217 C162.32300876 492.0780928 179.24230536 492.08934724 196.16164814 492.10836039 C213.52215323 492.12772016 230.88263106 492.13599802 248.24314702 492.13223714 C257.9946457 492.13032217 267.74609539 492.13284123 277.4975853 492.14695168 C285.79960704 492.15884281 294.10154964 492.16029596 302.40357243 492.14816151 C306.64112176 492.14225667 310.87852615 492.14121745 315.11606598 492.15316391 C318.99355393 492.16396845 322.87077497 492.16098459 326.74825014 492.14690223 C328.15268144 492.14424022 329.55713329 492.14666869 330.9615445 492.15463809 C332.86773141 492.16470595 334.77399324 492.15455399 336.68017387 492.14336109 C337.73986598 492.14341611 338.79955808 492.14347112 339.89136207 492.14352781 C343.19333731 491.71096042 345.07245267 490.71124706 347.75311279 488.76863098 C349.70791988 485.90425196 350.0015863 483.61223742 349.99362183 480.18751526 C349.99637115 479.27328796 349.99912048 478.35906067 350.00195312 477.41712952 C349.99476257 476.42163086 349.98757202 475.4261322 349.98016357 474.40046692 C349.98060165 472.81951233 349.98060165 472.81951233 349.98104858 471.20661926 C349.97965496 467.72199783 349.96409201 464.23759007 349.94842529 460.75300598 C349.94469528 458.33733741 349.94184825 455.92166733 349.93984985 453.5059967 C349.93221247 447.14704717 349.91256297 440.78818896 349.89044189 434.42927551 C349.8699858 427.94084407 349.86084863 421.45239787 349.85076904 414.96394348 C349.82931727 402.23213368 349.79556425 389.50038719 349.75311279 376.76863098 C349.20932983 377.5230397 348.66554688 378.27744843 348.10528564 379.05471802 C347.38901001 380.04481369 346.67273438 381.03490936 345.93475342 382.05500793 C344.87157898 383.52693352 344.87157898 383.52693352 343.78692627 385.02859497 C339.85690643 390.32327711 335.29359551 395.00011811 330.75311279 399.76863098 C329.76891357 400.84950989 329.76891357 400.84950989 328.76483154 401.95222473 C324.86249468 406.10524705 320.57974845 409.58466148 316.00311279 412.95613098 C315.19910034 413.56255432 315.19910034 413.56255432 314.37884521 414.18122864 C312.55347139 415.48304976 310.6818694 416.62471117 308.75311279 417.76863098 C308.0395333 418.19959831 307.32595381 418.63056564 306.59075069 419.07459259 C295.8723037 424.50570658 284.33430814 423.45453998 272.61273193 423.38386536 C270.16589982 423.38737002 267.71906999 423.39303249 265.27224731 423.40068054 C259.34044826 423.41341154 253.40896232 423.40304771 247.47721375 423.3815673 C240.56394973 423.35745785 233.65076299 423.35927752 226.73746627 423.36187321 C214.40431296 423.36555516 202.07132139 423.34480359 189.73822021 423.31062317 C177.77724121 423.27748655 165.81643169 423.2633743 153.85540771 423.26960754 C140.81181709 423.27637157 127.76829725 423.27391486 114.72471708 423.25424814 C114.03515689 423.25320866 113.34559671 423.25216917 112.63514076 423.25109819 C111.25034995 423.24900737 109.86555918 423.2468964 108.48076843 423.24476501 C103.66342788 423.2378735 98.84610917 423.23719934 94.02876472 423.23864746 C87.55013611 423.24023729 81.07166779 423.22534468 74.59309006 423.19942093 C72.21344295 423.19224767 69.83377428 423.19018105 67.45411873 423.19353867 C64.21140387 423.19724203 60.96928499 423.1825455 57.72663879 423.16304016 C56.78054231 423.16836809 55.83444583 423.17369601 54.85967976 423.17918539 C50.00704731 423.1286652 46.68368981 422.94876389 42.75311279 419.76863098 C40.1874069 416.34768979 40.31603225 412.92089614 40.75311279 408.76863098 C42.54873684 406.01534077 43.80566201 404.24235637 46.75311279 402.76863098 C49.70105193 402.67255739 52.62530753 402.63854566 55.57345581 402.64837646 C56.96034334 402.64709483 56.96034334 402.64709483 58.37524879 402.6457873 C61.49227097 402.6441322 64.60924005 402.64965438 67.72625732 402.65510559 C69.95312499 402.65538748 72.17999274 402.65522969 74.40686035 402.65466309 C80.46854016 402.65437519 86.53020033 402.66027071 92.59187555 402.66723704 C98.92067523 402.67347183 105.24947531 402.67407448 111.57827759 402.67526245 C122.20605857 402.67802132 132.83383176 402.68427521 143.46160889 402.69319153 C154.40952518 402.7023669 165.35743952 402.70944712 176.30535889 402.71369934 C176.97989444 402.71396206 177.65442999 402.71422479 178.34940602 402.71449547 C181.73326484 402.71580049 185.11712368 402.7170642 188.50098252 402.71830738 C216.58503098 402.72867847 244.66907144 402.74636967 272.75311279 402.76863098 C272.74205505 402.16607483 272.73099731 401.56351868 272.71960449 400.94270325 C272.71100403 400.14404846 272.70240356 399.34539368 272.69354248 398.52253723 C272.67695587 397.3402655 272.67695587 397.3402655 272.66003418 396.1341095 C272.80454718 392.46148925 273.82531454 389.22626093 275.00311279 385.76863098 C275.20807373 385.12152161 275.41303467 384.47441223 275.62420654 383.80769348 C276.82999805 380.10993286 278.25219165 376.56279643 279.84588623 373.01472473 C280.20374207 372.21606995 280.5615979 371.41741516 280.93029785 370.59455872 C281.20182678 369.99200256 281.47335571 369.38944641 281.75311279 368.76863098 C280.5517484 368.77139636 279.35038401 368.77416174 278.11261463 368.77701092 C249.60102456 368.8419705 221.08943552 368.89144553 192.57778819 368.92182697 C189.06925368 368.92557913 185.56071933 368.9294621 182.05218506 368.9334259 C181.35369275 368.93421283 180.65520045 368.93499977 179.93554171 368.93581054 C168.62247397 368.948868 157.30945193 368.9725237 145.9964113 369.00008937 C134.39003167 369.02813414 122.7836787 369.04458068 111.17726678 369.05089647 C104.65733525 369.05481296 98.13750738 369.06404001 91.61760902 369.08582115 C85.48389696 369.1061466 79.35033151 369.11247272 73.21658897 369.10795403 C70.96271341 369.10878099 68.70883306 369.11476995 66.45498657 369.12624741 C63.38245305 369.1411296 60.31047617 369.13759998 57.2379303 369.12939453 C56.3420126 369.13813306 55.44609491 369.14687158 54.52302819 369.15587491 C49.7681323 369.12145154 46.62028544 368.85351034 42.75311279 365.76863098 C40.1874069 362.34768979 40.31603225 358.92089614 40.75311279 354.76863098 C42.54873684 352.01534077 43.80566201 350.24235637 46.75311279 348.76863098 C48.11845626 348.67607747 49.4882223 348.6448899 50.85669899 348.64558315 C52.1532702 348.64259658 52.1532702 348.64259658 53.47603476 348.63954967 C54.43127331 348.64246251 55.38651185 348.64537536 56.37069702 348.64837646 C57.3810433 348.64752204 58.39138959 348.64666762 59.43235242 348.6457873 C62.83958319 348.64413177 66.24676542 348.64965509 69.6539917 348.65510559 C72.08775328 348.65538747 74.52151495 348.65522971 76.95527649 348.65466309 C82.20617777 348.6544349 87.45706795 348.65728307 92.70796585 348.66290092 C100.29993977 348.67101819 107.89190767 348.67363138 115.48388545 348.67488892 C127.80051932 348.67707908 140.11714658 348.6837382 152.43377686 348.69319153 C164.40024787 348.70236657 176.3667171 348.70944695 188.33319092 348.71369934 C189.07045338 348.71396206 189.80771584 348.71422479 190.56731959 348.71449547 C194.26584391 348.71580048 197.96436824 348.7170642 201.66289258 348.71830738 C232.35963739 348.72867888 263.05637417 348.74637041 293.75311279 348.76863098 C294.05774445 348.14873291 294.3623761 347.52883484 294.67623901 346.89015198 C296.6297144 343.04166097 299.18806529 339.57119327 301.62811279 336.01863098 C302.49714233 334.75043518 302.49714233 334.75043518 303.38372803 333.45661926 C307.54838538 327.4200467 311.8674869 321.52383868 316.3036499 315.68513489 C320.38283425 310.3046526 324.29162518 304.81797632 328.16546631 299.28840637 C332.51087454 293.09034335 336.93658031 286.95276014 341.3895874 280.83161926 C341.90142578 280.12634094 342.41326416 279.42106262 342.94061279 278.69441223 C343.38791748 278.07993225 343.83522217 277.46545227 344.29608154 276.83235168 C344.77690186 276.15132385 345.25772217 275.47029602 345.75311279 274.76863098 C346.43246006 273.87387999 347.11180733 272.97912899 347.81174088 272.05726433 C350.0008848 268.34891168 350.25844836 266.35126758 350.27209473 262.08677673 C350.27959598 261.44053246 350.28709723 260.79428819 350.29482579 260.12846076 C350.31502062 257.97709805 350.30701738 255.82679757 350.29901123 253.67536926 C350.3077508 252.12769534 350.31823792 250.58003045 350.33033752 249.03237915 C350.35817148 244.84064731 350.36160279 240.64921068 350.36061764 236.45739985 C350.36374899 232.07311058 350.38937182 227.68895384 350.41259766 223.30473328 C350.45314419 215.0069737 350.47349519 206.70929269 350.48657155 198.41144931 C350.50244616 188.96281007 350.54086373 179.51430444 350.58116484 170.06574273 C350.66354535 150.6334144 350.717649 131.20109872 350.75311279 111.76863098 C349.38914368 111.78195465 349.38914368 111.78195465 347.99761963 111.79554749 C339.40593553 111.87587242 330.81437853 111.9366862 322.22240448 111.97587967 C317.80571911 111.99670726 313.3893454 112.0249359 308.97283936 112.07038879 C304.70639505 112.11401987 300.44024953 112.13780437 296.17359924 112.14813995 C294.55016887 112.15550049 292.92675387 112.16987379 291.30345154 112.19155121 C281.72150368 112.31435701 274.25349926 112.40258489 266.54608154 105.90925598 C266.01627686 105.28534973 265.48647217 104.66144348 264.94061279 104.01863098 C264.39791748 103.40503723 263.85522217 102.79144348 263.29608154 102.15925598 C257.85011509 93.72145479 258.35901603 85.13307574 258.46014404 75.45613098 C258.46574734 73.87573145 258.47001397 72.29532667 258.4730072 70.71492004 C258.4843983 66.57860129 258.51381517 62.44260436 258.54711914 58.30641174 C258.57794454 54.07641451 258.59153905 49.84636469 258.60662842 45.61628723 C258.63869116 37.33358834 258.68981697 29.05114983 258.75311279 20.76863098 C224.95132766 20.80461044 191.14965172 20.86151753 157.34795554 20.94655193 C153.35874075 20.95656957 149.36952555 20.96641367 145.38031006 20.97615051 C144.58611808 20.97809189 143.7919261 20.98003326 142.9736677 20.98203346 C130.10866206 21.01306749 117.24367427 21.03003802 104.37863825 21.04182521 C91.18114829 21.05422951 77.98375211 21.08171456 64.78632134 21.12324405 C56.64061149 21.14840018 48.49505711 21.16174673 40.34930786 21.16006055 C34.10658295 21.16002732 27.86408973 21.18096051 21.62143517 21.20979881 C19.05797045 21.21833796 16.4944726 21.22002074 13.93099976 21.21443367 C10.43790739 21.20783291 6.94577018 21.22562162 3.45277405 21.24964905 C2.43234601 21.24188863 1.41191797 21.23412821 0.36056787 21.22613263 C-4.03534114 21.27986514 -6.54331531 21.33658985 -10.35311604 23.67606735 C-13.48902014 27.14115277 -13.37826034 29.27960202 -13.40460205 33.88313293 C-13.41999527 35.81072197 -13.41999527 35.81072197 -13.43569946 37.7772522 C-13.43913738 38.4662089 -13.4425753 39.1551656 -13.4461174 39.86499977 C-13.45790468 42.02154356 -13.47735779 44.17788693 -13.49923706 46.33435059 C-13.56085227 52.46626593 -13.61485916 58.59816185 -13.64825439 64.7303009 C-13.66922821 68.48048832 -13.70455504 72.23031207 -13.74901199 75.98029137 C-13.76315348 77.4079427 -13.77189027 78.8356584 -13.77506638 80.26337624 C-13.77998792 82.26431154 -13.8047785 84.26516791 -13.8303833 86.26594543 C-13.83847015 87.40352798 -13.84655701 88.54111053 -13.85488892 89.71316528 C-14.29687793 93.15828814 -15.15045884 95.01790174 -17.24688721 97.76863098 C-20.57680518 99.61858541 -23.03986428 100.76863098 -26.87188721 100.76863098 C-30.21478241 99.36109616 -31.92820886 97.55220805 -34.24688721 94.76863098 C-34.87507629 91.53921509 -34.87507629 91.53921509 -34.87799072 87.84211731 C-34.88514603 87.16494659 -34.89230133 86.48777588 -34.89967346 85.79008484 C-34.916529 83.55958265 -34.89716963 81.33110102 -34.87579346 79.10066223 C-34.87662295 77.53992548 -34.87908534 75.97918883 -34.88310242 74.41845703 C-34.88595887 71.14746288 -34.87128381 67.87715395 -34.84381104 64.60627747 C-34.80986909 60.43800394 -34.81570021 56.27096655 -34.83447361 52.10263538 C-34.84511063 48.87753231 -34.8360432 45.65271033 -34.82108879 42.42763329 C-34.81594589 40.89243597 -34.81634091 39.35720879 -34.82263374 37.82201576 C-34.85021452 27.04299773 -34.1457842 16.62565748 -26.25420737 8.47740048 C-18.44688641 1.8312699 -9.98346753 -0.11825073 0 0 Z " fill="#000000" transform="translate(39.24688720703125,-0.7686309814453125)"/>
<path d="M0 0 C7.74794959 5.19481572 12.82974434 12.68460648 14.86328125 21.75 C16.28031162 33.40375759 14.90794541 41.67555973 8.86328125 51.75 C8.86328125 52.41 8.86328125 53.07 8.86328125 53.75 C10.45065524 55.31648858 10.45065524 55.31648858 12.48828125 56.9375 C20.70466808 63.99460827 26.61167931 71.8834152 28.86328125 82.75 C29.13867954 86.82969329 29.14058038 90.91200597 29.17578125 95 C29.20478516 96.10730469 29.23378906 97.21460938 29.26367188 98.35546875 C29.32081058 105.74833832 28.64318562 111.69310298 23.45068359 117.26611328 C18.3600897 121.80249587 13.87156142 122.99703192 7.18041992 123.04052734 C6.52929733 123.04724457 5.87817474 123.05396179 5.20732117 123.06088257 C3.06521874 123.07980351 0.92343069 123.08378389 -1.21875 123.0859375 C-2.71701686 123.09237025 -4.21528248 123.09909896 -5.71354675 123.10610962 C-8.85145985 123.11806811 -11.98926299 123.12179199 -15.12719727 123.12060547 C-19.13190195 123.12040252 -23.13589509 123.1476854 -27.1404314 123.18214989 C-30.23499232 123.20448015 -33.32938375 123.20844113 -36.42401695 123.20738602 C-37.89949682 123.20973351 -39.37498197 123.21850871 -40.85038185 123.23405075 C-49.91074686 123.32054839 -57.07731352 123.21418109 -64.1953125 116.93359375 C-64.65035156 116.35738281 -65.10539062 115.78117187 -65.57421875 115.1875 C-66.04730469 114.60871094 -66.52039063 114.02992188 -67.0078125 113.43359375 C-70.41494345 108.35237078 -69.44296301 101.67236441 -69.51171875 95.8125 C-69.54910156 94.63880859 -69.58648437 93.46511719 -69.625 92.25585938 C-69.76655762 78.0293185 -64.10621881 67.77397931 -54.38671875 57.8125 C-52.63337865 56.07890472 -51.34398525 54.85363325 -49.13671875 53.75 C-50.18558643 51.0886208 -51.26706995 48.4557223 -52.42578125 45.83984375 C-56.51209693 36.19757255 -57.80537143 28.16336425 -54.57421875 18.0625 C-50.64916595 8.55758121 -44.20520905 1.62161458 -35.13671875 -3.25 C-23.10222917 -7.47833418 -10.88709911 -6.3690525 0 0 Z " fill="#020202" transform="translate(157.13671875,137.25)"/>
<path d="M0 0 C0.84736373 -0.00445784 1.69472746 -0.00891569 2.56776887 -0.01350862 C3.50403303 -0.01332426 4.44029718 -0.01313989 5.40493298 -0.01294994 C6.39541722 -0.01662663 7.38590146 -0.02030332 8.40640038 -0.02409142 C11.74667059 -0.03516102 15.08690972 -0.03897762 18.42719555 -0.04278088 C20.81343721 -0.04904299 23.19967788 -0.05568956 25.58591747 -0.0626936 C32.76202834 -0.08194462 39.93813981 -0.09252491 47.11426929 -0.10142139 C50.49222692 -0.10580296 53.87018299 -0.11117009 57.24813938 -0.11641026 C68.47470588 -0.13342291 79.7012714 -0.14791775 90.92784882 -0.155159 C93.84185633 -0.15706894 96.75586384 -0.15898927 99.66987133 -0.16094494 C100.75628658 -0.16167055 100.75628658 -0.16167055 101.86464962 -0.16241082 C113.6011722 -0.17071363 125.33759293 -0.19605458 137.07407103 -0.22852562 C149.11896273 -0.26157874 161.16380264 -0.27960615 173.20873994 -0.28280324 C179.97346446 -0.28496992 186.73804046 -0.29374151 193.50272083 -0.31926441 C199.8646752 -0.34247118 206.22636179 -0.3468081 212.58834743 -0.33650303 C214.92607861 -0.33600578 217.26382264 -0.34238158 219.60151386 -0.35605907 C222.78793905 -0.37366236 225.97339119 -0.36672843 229.15981579 -0.35352612 C230.08938778 -0.36449536 231.01895977 -0.37546461 231.9767006 -0.38676625 C236.17761526 -0.34461454 238.38801365 -0.23105714 242.02366447 2.03970528 C244.52110699 4.72335604 244.92233998 5.69646894 245.34784985 9.38422108 C244.85140746 14.34864494 243.49777572 15.69127022 239.97284985 19.13422108 C237.25143308 20.04136 235.66912292 20.26224049 232.87229729 20.27123547 C232.0340094 20.27631001 231.19572151 20.28138455 230.33203095 20.28661287 C228.95053643 20.2873595 228.95053643 20.2873595 227.54113293 20.28812122 C226.56275048 20.29250348 225.58436803 20.29688573 224.57633764 20.30140078 C221.28296935 20.31480411 217.98962783 20.32097106 214.69623852 20.32709217 C212.34102793 20.33499181 209.98581856 20.34326067 207.63061047 20.35187244 C200.55280253 20.37583976 193.47499375 20.39102075 186.39715788 20.40393251 C183.7320336 20.40888204 181.06691037 20.41433004 178.40178701 20.41974782 C166.65486013 20.44345198 154.90793122 20.46363991 143.16098595 20.47541332 C140.28634353 20.47834301 137.41170116 20.48130468 134.53705883 20.48431873 C133.82258165 20.48506478 133.10810447 20.48581083 132.37197647 20.48657949 C120.79459664 20.49923661 109.21737025 20.53246535 97.64006218 20.57412057 C85.75446676 20.61653463 73.86894995 20.64010761 61.98327905 20.64533389 C55.30961188 20.64874831 48.63615286 20.66107388 41.96255589 20.69343662 C35.68590384 20.72343839 29.40967061 20.72985702 23.13296223 20.71805286 C20.82789457 20.71783148 18.52280792 20.72618953 16.21780682 20.7437067 C13.07320245 20.76630599 9.93012866 20.75814537 6.78551769 20.74222279 C5.87121351 20.75610487 4.95690933 20.76998696 4.01489896 20.78428972 C-0.30666367 20.7302929 -3.14631084 20.48877181 -6.57794189 17.72122097 C-9.46090415 14.67606422 -9.94815343 13.97158639 -10.33965015 9.82172108 C-9.97839074 5.55885997 -9.00722961 4.11430054 -6.02715015 1.13422108 C-3.75689111 -0.00090845 -2.52059696 0.00613614 0 0 Z " fill="#030303" transform="translate(90.02715015411377,293.86577892303467)"/>
<path d="M0 0 C1.00736206 -0.00569504 2.01472412 -0.01139008 3.0526123 -0.01725769 C6.36766616 -0.02833216 9.68072829 0.00365227 12.99560547 0.03735352 C15.30532601 0.04093187 17.61505098 0.04228778 19.92477417 0.04151917 C24.75839689 0.04620507 29.5913503 0.07100811 34.42480469 0.11132812 C40.62007669 0.16235448 46.81461516 0.17376902 53.01007271 0.17149258 C57.77646891 0.17230825 62.54270481 0.18876005 67.3090477 0.2104969 C69.59359398 0.22004086 71.87815841 0.22595537 74.16272354 0.22817802 C77.35358901 0.234683 80.54367673 0.26094333 83.734375 0.29296875 C84.67787811 0.29160919 85.62138123 0.29024963 86.59347534 0.28884888 C92.61499771 0.37722065 95.98426825 1.34237167 100.61279297 5.35375977 C102.13323807 8.56358831 101.83667645 11.02567743 101.55029297 14.51000977 C100.31645524 17.87933587 98.80818112 18.85082258 95.73779297 20.72875977 C92.27314819 21.33160206 88.84531773 21.2957489 85.33544922 21.27807617 C84.28936493 21.28829803 83.24328064 21.2985199 82.16549683 21.30905151 C78.71019565 21.33683544 75.25569251 21.33493135 71.80029297 21.33032227 C69.39802758 21.33809578 66.99576493 21.34676504 64.59350586 21.35629272 C59.55980515 21.37121473 54.52638501 21.37063593 49.49267578 21.36010742 C43.03925297 21.34850896 36.58697648 21.38240102 30.13374329 21.42879677 C25.17347491 21.45824484 20.21348361 21.46001877 15.25314331 21.45377731 C12.87366462 21.4548048 10.49417062 21.46530027 8.11477661 21.48540115 C4.78913585 21.51005082 1.46574095 21.49660032 -1.85986328 21.47338867 C-2.84391144 21.48867615 -3.82795959 21.50396362 -4.84182739 21.51971436 C-11.35342667 21.41915162 -11.35342667 21.41915162 -13.98757935 19.41801071 C-16.26610657 16.76916545 -17.98266919 14.27330032 -18.01220703 10.72875977 C-17.67522661 7.37190679 -16.83848207 5.8047124 -14.35671997 3.52430725 C-9.7981485 -0.13773493 -5.66925912 -0.1017349 0 0 Z " fill="#050505" transform="translate(233.26220703125,130.271240234375)"/>
<path d="M0 0 C4.31152303 1.48783541 7.64563381 3.67969665 11.3125 6.375 C12.91544922 7.53128906 12.91544922 7.53128906 14.55078125 8.7109375 C15.76314453 9.84402344 15.76314453 9.84402344 17 11 C17 15.00612364 16.99272119 15.50970683 14.83203125 18.4765625 C14.35765625 19.13785156 13.88328125 19.79914063 13.39453125 20.48046875 C12.87246094 21.18816406 12.35039062 21.89585937 11.8125 22.625 C11.27367187 23.37136719 10.73484375 24.11773437 10.1796875 24.88671875 C8.46131223 27.26387068 6.73073161 29.63183484 5 32 C3.36958063 34.25201375 1.7426673 36.5065296 0.1159668 38.76123047 C-0.9685693 40.26375291 -2.05436116 41.76536967 -3.14135742 43.26611328 C-6.79871634 48.31791856 -10.41260469 53.39832132 -14 58.5 C-22.86186171 71.09889761 -31.92565187 83.55361314 -41 96 C-43.98965642 95.40149598 -45.99778498 94.51087951 -48.453125 92.71484375 C-49.071875 92.26689453 -49.690625 91.81894531 -50.328125 91.35742188 C-50.96234375 90.88884766 -51.5965625 90.42027344 -52.25 89.9375 C-53.22453125 89.22883789 -53.22453125 89.22883789 -54.21875 88.50585938 C-55.81653662 87.34276471 -57.40881803 86.17211399 -59 85 C-58.37614058 81.78160608 -57.26113442 79.60371348 -55.41015625 76.91015625 C-54.87841797 76.13285156 -54.34667969 75.35554688 -53.79882812 74.5546875 C-53.22583984 73.73226562 -52.65285156 72.90984375 -52.0625 72.0625 C-51.47275391 71.20785156 -50.88300781 70.35320312 -50.27539062 69.47265625 C-46.2199933 63.63780506 -41.97402765 58.01385075 -37.5859375 52.42578125 C-34.41700181 48.30567009 -31.53418167 43.99284919 -28.625 39.6875 C-24.03499936 32.89726687 -19.29267056 26.26924521 -14.33544922 19.74291992 C-9.41537818 13.26172008 -4.69383463 6.64613753 0 0 Z " fill="#9ADFCE" transform="translate(414,268)"/>
<path d="M0 0 C0.89583801 -0.0071553 1.79167603 -0.01431061 2.71466064 -0.02168274 C3.70014389 -0.02437164 4.68562714 -0.02706055 5.70097351 -0.02983093 C6.73686615 -0.03640213 7.77275879 -0.04297333 8.84004211 -0.04974365 C12.27895677 -0.06950579 15.71782771 -0.08114528 19.15678406 -0.09111023 C20.32919333 -0.09518576 21.50160259 -0.09926128 22.70953941 -0.10346031 C28.91387634 -0.12433271 35.11819107 -0.13862982 41.32255554 -0.147995 C47.73878237 -0.15906656 54.15466306 -0.19347213 60.5707674 -0.23316669 C65.49752458 -0.25928048 70.4241986 -0.26768215 75.35101891 -0.27127647 C77.71654284 -0.27615536 80.08206275 -0.28780612 82.4475193 -0.30631447 C85.75624343 -0.33059557 89.06406304 -0.3297608 92.37284851 -0.32279968 C93.35225906 -0.33560974 94.33166962 -0.3484198 95.34075928 -0.36161804 C99.66857566 -0.3283861 102.06587575 -0.26342784 105.81588745 2.05154419 C108.72216678 5.23175833 108.72216678 5.23175833 108.75053406 8.17060852 C108.19022489 14.53487491 108.19022489 14.53487491 105.85600281 17.64717102 C102.72876597 19.85463232 100.18750195 20.27362766 96.46237183 20.30107117 C95.15658424 20.31397186 95.15658424 20.31397186 93.82441711 20.32713318 C92.8721524 20.33139313 91.9198877 20.33565308 90.93876648 20.34004211 C89.43100899 20.35230835 89.43100899 20.35230835 87.89279175 20.36482239 C84.56152442 20.38966507 81.23029964 20.40618851 77.89897156 20.42060852 C76.7618252 20.4259322 75.62467884 20.43125587 74.4530735 20.43674088 C68.43561604 20.46346599 62.41817929 20.48284404 56.40068054 20.49726868 C50.18291167 20.51392604 43.96567183 20.5587154 37.74810314 20.60964012 C32.96885562 20.64327692 28.18973433 20.65484216 23.41037941 20.66049576 C21.11823286 20.66721671 18.82609486 20.6824605 16.53406334 20.70638657 C13.32607591 20.73796675 10.11952447 20.73808525 6.91142273 20.73066711 C5.4921347 20.75527512 5.4921347 20.75527512 4.04417419 20.78038025 C-0.3629519 20.73867235 -3.33788303 20.56338187 -6.84277344 17.73570251 C-9.69922586 14.68816123 -10.19130288 13.97073069 -10.58149719 9.83467102 C-10.22023778 5.57180992 -9.24907665 4.12725048 -6.26899719 1.14717102 C-3.94483789 -0.01490863 -2.58843697 0.01416856 0 0 Z " fill="#050505" transform="translate(226.2689971923828,239.8528289794922)"/>
<path d="M0 0 C1.04608429 -0.00730133 2.09216858 -0.01460266 3.16995239 -0.02212524 C6.62568228 -0.03832927 10.07953419 -0.01112635 13.53515625 0.01806641 C15.93741861 0.01910373 18.33968268 0.01806787 20.74194336 0.01504517 C25.77581132 0.01522458 30.80903844 0.03607541 35.84277344 0.07226562 C42.29602452 0.11764084 48.74833923 0.1187282 55.20170593 0.10523033 C60.16199062 0.09854806 65.12206173 0.1118158 70.08230591 0.1314888 C72.46175011 0.13918847 74.84121807 0.14149101 77.22067261 0.13831711 C80.54601319 0.13757553 83.87015238 0.16282054 87.1953125 0.1953125 C88.17936066 0.19035767 89.16340881 0.18540283 90.17727661 0.18029785 C94.50727314 0.24784079 96.93668984 0.3359019 100.68530273 2.65396118 C102.6721014 4.82601557 103.57288639 5.82814406 103.65234375 8.76806641 C103.16360504 15.1641686 103.16360504 15.1641686 100.16015625 18.24462891 C96.89804963 20.15415473 95.19012908 20.87100328 91.44927979 20.89852905 C90.58012939 20.90712952 89.710979 20.91572998 88.81549072 20.92459106 C87.85963074 20.92885101 86.90377075 20.93311096 85.91894531 20.9375 C84.91391968 20.94567749 83.90889404 20.95385498 82.87341309 20.96228027 C79.53670859 20.98715829 76.20004671 21.0036567 72.86328125 21.01806641 C71.72521782 21.02339008 70.58715439 21.02871376 69.41460419 21.03419876 C63.39066745 21.0609411 57.36675151 21.08031235 51.34277344 21.09472656 C45.11712872 21.11137484 38.89201331 21.15615168 32.66656876 21.20709801 C27.88303003 21.24073764 23.09961742 21.25230047 18.31597137 21.25795364 C16.02103379 21.26467541 13.72610477 21.27992129 11.43128204 21.30384445 C8.2183966 21.33542643 5.00694493 21.33554266 1.79394531 21.328125 C0.84618225 21.34453033 -0.10158081 21.36093567 -1.07806396 21.37783813 C-5.48864652 21.33616604 -8.46924794 21.16321577 -11.97711182 18.3331604 C-14.79255062 15.328148 -15.30885211 14.55488975 -15.77734375 10.49462891 C-15.39760216 6.697213 -14.67159999 4.83907685 -12.14035034 1.99824905 C-8.55175986 -0.59019299 -4.25995176 -0.0661796 0 0 Z " fill="#050505" transform="translate(231.40234375,185.25537109375)"/>
<path d="M0 0 C0.63292969 0.43183594 1.26585937 0.86367187 1.91796875 1.30859375 C2.62308594 1.77136719 3.32820313 2.23414063 4.0546875 2.7109375 C10.36889513 7.48452515 12.58890302 12.81191343 14.91796875 20.30859375 C14.91796875 24.92859375 14.91796875 29.54859375 14.91796875 34.30859375 C-4.88203125 34.30859375 -24.68203125 34.30859375 -45.08203125 34.30859375 C-45.08203125 21.37760182 -44.92142559 13.20921646 -36.09765625 4.0703125 C-26.70327359 -4.14066924 -11.18934788 -6.25478053 0 0 Z " fill="#B1B0E9" transform="translate(152.08203125,205.69140625)"/>
<path d="M0 0 C6.60083757 5.43068645 12.58995598 11.4441867 18.62109375 17.48828125 C19.73195558 18.59846851 20.84296575 19.70850738 21.95411682 20.81840515 C24.26783159 23.13065384 26.57974816 25.44468129 28.89038086 27.76000977 C31.85850238 30.73386817 34.83114509 33.7031606 37.80511379 36.67117023 C40.09305585 38.95551127 42.37862643 41.24221302 44.66346931 43.52965355 C45.75961897 44.62647168 46.85651579 45.72254362 47.95416069 46.81786537 C49.47894567 48.34012708 51.00051629 49.86552856 52.52124023 51.3918457 C53.38837143 52.25977249 54.25550262 53.12769928 55.14891052 54.02192688 C57 56 57 56 57 57 C49.20383922 57.07586402 41.40777307 57.12852114 33.61132812 57.16479492 C30.95732059 57.17991145 28.30333814 57.20040495 25.64941406 57.22631836 C21.841734 57.26257521 18.03438325 57.27969763 14.2265625 57.29296875 C12.43745956 57.31619453 12.43745956 57.31619453 10.61221313 57.33988953 C9.51122284 57.34011612 8.41023254 57.34034271 7.27587891 57.34057617 C5.8169371 57.35056892 5.8169371 57.35056892 4.32852173 57.36076355 C3.56010956 57.24171158 2.79169739 57.12265961 2 57 C-0.23077928 53.65383108 -0.24524037 52.60406041 -0.22705078 48.70239258 C-0.22689972 47.62149857 -0.22674866 46.54060455 -0.22659302 45.42695618 C-0.21627045 44.26125595 -0.20594788 43.09555573 -0.1953125 41.89453125 C-0.1924826 40.70018967 -0.18965271 39.50584808 -0.18673706 38.27531433 C-0.17552677 34.45427503 -0.15042037 30.63346866 -0.125 26.8125 C-0.11497131 24.22461276 -0.10584527 21.63672184 -0.09765625 19.04882812 C-0.07558465 12.69913904 -0.0420986 6.34958616 0 0 Z " fill="#F9D58B" transform="translate(318,34)"/>
<path d="M0 0 C-1.555363 4.78433298 -4.26291609 8.21550152 -7.3125 12.125 C-11.9406887 18.17029802 -16.35472311 24.32189338 -20.625 30.625 C-25.96448539 38.50538258 -31.4245684 46.28501225 -37 54 C-41.12764916 52.18633597 -44.62059205 49.50853382 -48.25 46.875 C-48.8996875 46.40707031 -49.549375 45.93914062 -50.21875 45.45703125 C-51.81435483 44.30725718 -53.40743025 43.15397434 -55 42 C-54.38483579 38.76757531 -53.28433901 36.69839921 -51.33984375 34.05859375 C-50.79739014 33.31512695 -50.25493652 32.57166016 -49.69604492 31.80566406 C-48.82556519 30.63342285 -48.82556519 30.63342285 -47.9375 29.4375 C-46.74456272 27.81657472 -45.55185376 26.19548138 -44.359375 24.57421875 C-43.77994141 23.78966309 -43.20050781 23.00510742 -42.60351562 22.19677734 C-41.25103857 20.34391673 -39.93340701 18.47668539 -38.640625 16.58203125 C-29.63880213 3.5293881 -16.22894586 -4.64223335 0 0 Z " fill="#FA7A94" transform="translate(482,210)"/>
<path d="M0 0 C4.94616497 1.93545586 8.63532278 6.27064555 11 11 C11.59293506 16.92935062 10.41248988 21.19955552 7 26 C1.80204084 30.13715117 -2.35806438 31.65330514 -9 31 C-13.70842572 29.12014346 -17.04110547 26.59097805 -19.5 22.125 C-21.35701531 17.70629838 -22.04013069 13.76978623 -20.3046875 9.1484375 C-15.90737883 0.46467669 -9.19436495 -1.1404955 0 0 Z " fill="#F9C3B4" transform="translate(142,152)"/>
<path d="M0 0 C5.83096952 3.10157953 10.86601899 6.85556181 16 11 C14.42274174 15.02342526 11.58292163 17.55064914 8.4375 20.375 C7.90318359 20.85815674 7.36886719 21.34131348 6.81835938 21.83911133 C-4.60688169 32 -4.60688169 32 -11 32 C-11.5813536 20.68070338 -5.18980734 9.73757666 0 0 Z " fill="#AFAEE6" transform="translate(343,369)"/>
<path d="M0 0 C5.57894737 3.15789474 5.57894737 3.15789474 7 6 C7.50440511 10.28330893 7.81920188 13.81670839 5.3125 17.4375 C1.71261387 19.8698555 -0.65212691 21.05501523 -5.0625 20.875 C-8.63015279 19.81229491 -9.90993057 19.09639915 -12 16 C-13.17737262 11.68565511 -13.50251267 8.24305766 -11.8125 4.0625 C-8.3341814 0.10441332 -5.22337105 -0.62680453 0 0 Z " fill="#020202" transform="translate(17,125)"/>
</svg>
